<?xml version="1.0" encoding="utf-8"?>
<!-- Generator: Adobe Illustrator 23.0.1, SVG Export Plug-In . SVG Version: 6.00 Build 0)  -->
<svg version="1.1" xmlns="http://www.w3.org/2000/svg" xmlns:xlink="http://www.w3.org/1999/xlink" x="0px" y="0px"
	 width="143.1111111px" height="155.6022034px" viewBox="0 0 143.1111111 155.6022034"
	 style="enable-background:new 0 0 143.1111111 155.6022034;" xml:space="preserve">
<g id="Goud">
	<g>
		<path d="M124.6261063,3.7868085c-0.5243988-2.096199-2.6506042-3.3684006-4.7453003-2.8469009
			c-2.0960999,0.5243988-3.3703918,2.6483994-2.8468018,4.7453003l18.1313095,72.5269012l-18.1313095,72.5276031
			c-0.5235901,2.0968933,0.7507019,4.2209015,2.8468018,4.7453003c0.3186188,0.0791016,0.6380005,0.1172028,0.9522095,0.1172028
			c1.7532959,0,3.3484955-1.1865082,3.7930908-2.9641113l18.3686142-73.4767914
			c0.1551971-0.6233063,0.1551971-1.2752075,0-1.8984985L124.6261063,3.7868085z"/>
		<path d="M13.5928116,104.483017c-0.5345001-0.9615021-1.6769028-2.6569977-1.6769028-9.5267029
			c0-6.0948944-0.0056-15.2868958-0.0056-21.6423035c0-16.9722023-0.1137009-18.0137062,1.1243057-20.8150063
			c0.8958969-2.0319977,2.1691971-2.9657974,2.380394-3.1975937c0.2097015-0.2330017,0.1850052-0.4033051,0.0656052-0.5229034
			c-0.1428986-0.1456985-0.3728027-0.1572952-0.8143997-0.1572952c-0.4412003,0-2.7619019,0.4077988-6.4224014,0.4077988
			c-4.4065013,0-5.755302-0.3102036-6.7779002-0.3102036c-0.0712967,0-0.4559021-0.0086975-0.4559021,0.2870026
			c0,0.1369019,0.1152039,0.3015976,0.1659012,0.3582993c0.7401047,0.7983017,2.9689026,2.3380051,2.9746017,7.1772995
			c0.0059967,5.4743958,0.1222992,15.9611092,0.1222992,16.7696114c0.0059967,0.6947937-0.1163025,12.636795-0.1163025,21.6160889
			c0,6.8872986-0.8144989,8.2739105-1.5355988,9.3809967c-0.6771014,1.0547028-1.7013016,1.8706055-2.3758011,2.4007111
			c-0.2678986,0.2097931-0.2445984,0.4021912-0.2445984,0.4837036c0,0.2272949,0.2273026,0.3438873,0.4063034,0.3438873
			c0.3248978,0,3.8542938-0.5128021,7.8369975-0.5128021c1.8383026,0,7.2192993,0.4776001,7.3926086,0.489212
			c0.2171936,0.0116882,0.3728867-0.1339111,0.3728867-0.3377075c0-0.2449036-0.0772934-0.3089905-0.2025986-0.4313965
			C15.4398117,106.3768158,14.1710129,105.5203094,13.5928116,104.483017z"/>
		<path d="M81.084816,75.1480103c-0.9191132-0.1672974-1.3693085-0.2037048-1.3778992-0.3638916
			c-0.0177002-0.2987061,0.9483948-0.5582123,2.2052002-1.1278076c1.7144928-0.7731934,3.8179932-2.1687927,5.2413025-3.5921936
			c1.7174835-1.7217102,3.5673828-4.6235046,3.5673828-8.3321114c0-4.2901001-0.990799-7.1596985-3.9578857-10.1287994
			c-3.2732086-3.272995-10.3044891-3.1623001-11.9300995-3.1623001c-2.1996002,0-10.0540009,0.1936035-11.3549042,0.1936035
			c-0.6322021,0-2.1426086,0.1282959-3.8630981,0.1282959c-1.7610016,0-3.6604004,0.045105-4.790802-0.0712967
			c-0.3162079-0.0322037-0.5203094,0.0886002-0.569809,0.2840958c-0.0479889,0.1965027,0.088913,0.4761047,0.1459045,0.5841064
			c0.4149017,0.7851944,0.9060059,2.2403946,0.9060059,3.7524033c0,1.5457001,0.1501007,18.3806038,0.1501007,19.8665962
			c0,1.4887085-0.0424042,29.9002075-0.0424042,30.2089996c0,0.0641022,0.0176086,0.4138031-0.1369019,0.5653076
			c-0.2738953,0.279892-2.2490997,0.1981964-2.8246002,0.1282959c-1.2350006-0.1399078-3.3386002-0.6936035-5.2481995-2.3950043
			c-1.2644958-1.1243896-3.4990005-3.3679047-11.2614975-13.6114044
			c-1.5571899-2.0510864-12.0891037-15.8895874-13.069397-17.583786c-0.0480042-0.0845032-0.0597-0.122406-0.0597-0.144104
			c0-0.0263062,0.0056992-0.080307,0.0435944-0.1370087c0.9308014-1.327301,12.3251038-11.3273964,12.9396057-11.9086037
			c1.5121994-1.4263,10.5727081-8.6966934,10.9118958-9.0403976c0.0904007-0.0858994,0.2814026-0.2798004,0.2025986-0.4981995
			c-0.0524979-0.157196-0.1485977-0.2111969-0.7690964-0.2111969c-0.626503,0-3.0009003,0.1455994-4.549202,0.1966019
			c-2.0742035,0.0655975-3.7974014,0.082901-4.2637024,0.082901c-0.4617844,0-0.6175003,0.2156982-0.8113937,0.4067001
			c-0.4048004,0.4077988-3.7378006,4.9191971-9.1348038,10.8944931c-5.0356979,5.5792122-9.112999,10.0804024-12.1210022,12.9181099
			c-0.0975876,0.0919952-0.074295,0.2870026,0.077301,0.4922943c1.6927032,2.2581024,9.4698029,13.1571045,10.9280014,15.2257996
			c5.5672989,7.8834076,11.1246033,14.9571991,12.1457977,16.1461029c1.0399017,1.2118073,1.947403,1.8878021,2.9235001,2.144104
			c1.1477051,0.3087921,1.9766998,0.3961945,3.1435013,0.3961945c1.4624023,0,9.4217987-0.1631927,10.8856964-0.2097931
			c1.473999-0.040802,5.7729034,0.0349884,7.1551056,0.0349884c0.2650909,0,0.5330048,0.0059052,0.7153015-0.1804962
			c0.2082062-0.2097931,0.1734009-0.5769958,0.1734009-0.8448944c0-1.1421051-0.2536011-31.9425964-0.2536011-33.0557098
			c0-1.1156921,0.0715942-18.4810982,0.0715942-19.7847939c0-0.1940002-0.0090027-0.6979065,0.227005-0.9338074
			c0.2565918-0.2565918,0.8318024-0.2359924,0.9396973-0.2389984c0.5957947-0.0056915,1.5205994-0.0450897,4.116394-0.0450897
			c4.137207,0,6.5333099,0.1470947,9.1407166,1.3633881c4.0220032,1.8778076,5.3970032,5.4509125,5.3970032,9.1147003
			c0,6.059803-4.7195129,9.5589027-8.2944183,10.4184151c-0.920578,0.2198944-2.5112915,0.5387878-4.1934967,0.6772003
			c-0.1313019,0.0115967-0.2987061,0.0975952-0.3759918,0.2082977c-0.1019135,0.134201-0.1166077,0.3424988-0.1166077,0.662796
			c0,0.5695953-0.0334015,1.2077026-0.0334015,2.4284973c0,0.3874969-0.0146027,0.5724945,0.1166992,0.7238007
			c0.1470032,0.1676025,0.3012085,0.201004,0.7106018,0.201004c5.1902008,0,10.2169952,1.1100922,12.8070984,3.7003021
			c2.8988953,2.9015961,3.6417084,6.5608978,3.6417084,8.6994019c0,5.9200897-2.9468994,9.0256958-3.7130127,9.7888947
			c-4.3468933,4.3470001-10.2957916,3.7993011-10.697998,3.7993011c-0.608902,0-0.8564911,0.227005-0.8417969,0.5765991
			c0.0232086,0.6295013,0.032196,1.1421051,0.032196,2.0278015c0,0.8740997,0.2867126,0.9904938,0.4603119,1.0429993
			c0.5098877,0.1459045,1.9984894,0.0818024,3.5614014,0.0059052c6.3101959-0.3203125,9.8921967-1.6665039,13.4843903-4.2479095
			c3.0853119-2.2198944,5.6026001-7.4933014,5.6739044-12.0789948c0.102005-6.5027008-2.1954041-9.3986053-3.6184082-10.9747009
			C88.0782089,76.3643188,83.3587112,75.5648193,81.084816,75.1480103z"/>
	</g>
</g>
</svg>
